<svg xmlns="http://www.w3.org/2000/svg" viewBox="0 0 416.58 99.62"><defs><style>.cls-1{fill:#b90c34;}.cls-2{fill:#86010b;}.cls-3{fill:#610002;}</style></defs><title>mountainsAsset 1</title><g id="Layer_2" data-name="Layer 2"><g id="Layer_1-2" data-name="Layer 1"><polyline class="cls-1" points="43.46 56.17 0 99.62 86.92 99.62 18.67 99.62 52.79 65.5 43.46 56.17"/><polyline class="cls-1" points="79.63 38.67 52.79 65.5 76.12 88.83 93.96 71 111.96 89 120.96 80 79.63 38.67"/><polyline class="cls-2" points="52.79 65.5 18.67 99.62 86.92 99.62 65.33 99.62 76.12 88.83 52.79 65.5"/><polyline class="cls-2" points="93.96 71 76.12 88.83 86.92 99.62 122.58 99.62 101.33 99.62 111.96 89 93.96 71"/><polyline class="cls-3" points="76.12 88.83 65.33 99.62 86.92 99.62 76.12 88.83"/><polyline class="cls-1" points="200.96 0 120.96 80 140.58 99.62 300.58 99.62 225 99.62 262.79 61.83 200.96 0"/><polyline class="cls-2" points="120.96 80 111.96 89 122.58 99.62 140.58 99.62 120.96 80"/><polyline class="cls-3" points="111.96 89 101.33 99.62 122.58 99.62 111.96 89"/><polyline class="cls-1" points="295.13 29.5 262.79 61.83 271.63 70.67 303.96 38.33 295.13 29.5"/><polyline class="cls-2" points="262.79 61.83 225 99.62 300.58 99.62 242.67 99.62 271.63 70.67 262.79 61.83"/><polyline class="cls-1" points="329.63 12.67 303.96 38.33 365.25 99.62 416.58 99.62 329.63 12.67"/><polyline class="cls-2" points="303.96 38.33 271.63 70.67 300.58 99.62 365.25 99.62 303.96 38.33"/><polyline class="cls-3" points="271.63 70.67 242.67 99.62 300.58 99.62 271.63 70.67"/></g></g></svg>