<?xml version="1.0" encoding="utf-8"?>
<!-- Generator: Adobe Illustrator 18.0.0, SVG Export Plug-In . SVG Version: 6.00 Build 0)  -->
<!DOCTYPE svg PUBLIC "-//W3C//DTD SVG 1.1//EN" "http://www.w3.org/Graphics/SVG/1.1/DTD/svg11.dtd">
<svg version="1.1" id="TRIANGLE_WHITE" xmlns="http://www.w3.org/2000/svg" xmlns:xlink="http://www.w3.org/1999/xlink" x="0px"
	 y="0px" width="326px" height="53px" viewBox="0 0 732.6 117.5" enable-background="new 0 0 732.6 117.5" xml:space="preserve" preserveAspectRatio="xMaxYMin">
<g>
	<g>
		<path d="M373.6,105.3h-1c-0.5-2.2-1.6-4.3-4.9-4.3c-4-0.1-6,3.4-6,7.7c0,3,0.9,8,6.1,8c3.6,0,4.5-2.2,5.3-4.6h1l-0.4,4.6
			c-1.9,0.8-4,1.1-6.2,1.1c-3.1,0-5.4-0.7-7-2.3c-1.6-1.5-2.4-3.8-2.4-6.6c0-3,0.9-5.1,2.6-6.8c1.6-1.6,4.1-2.4,7.2-2.4
			c2,0.1,4.2,0.3,5.7,1V105.3z"/>
		<path d="M385,109.6v5c0,1.8,0.2,1.8,2.6,2v1h-8.6v-1c2.5-0.1,2.6-0.2,2.6-2v-11.4c0-1.8-0.2-1.8-2.6-2v-1h9.3
			c4.7,0,6.3,1.9,6.3,4.5c0,2.4-1.8,3.9-4.2,4.2v0.1c2.7,0.6,3.2,2.2,3.5,4.4c0.2,1.2,0.6,2,1,2.5c0.4,0.5,1.1,0.7,1.8,0.7v1H394
			c-1.6,0-2.5-0.7-3-2c-0.5-1.5-0.7-3.6-1.2-4.7c-0.4-0.8-1.2-1.3-2.7-1.3H385z M387.4,108.5c2.3,0,3.7-1.1,3.7-3.5
			c0-2.9-2.1-3.5-3.8-3.5c-1.6,0-2.3,0.1-2.3,1.1v5.9H387.4z"/>
		<path d="M415.2,100.3v4.3h-1c-0.4-2.8-1.7-3.2-4.2-3.2h-2.5c-0.6,0-0.8,0.2-0.8,0.9v5.7h3.4c2.2,0,2.7-0.4,2.9-2.3h1v5.7h-1
			c-0.2-1.9-0.7-2.3-2.9-2.3h-3.4v4.9c0,1,0.2,1.6,0.5,1.9c0.4,0.3,1.5,0.4,3,0.4c1.9,0,3.1-0.2,3.7-0.8c0.5-0.5,0.9-1.7,1.1-2.8h1
			l-0.3,4.7h-15v-1c2.5-0.1,2.6-0.2,2.6-2v-11.4c0-1.8-0.2-1.8-2.6-2v-1H415.2z"/>
		<path d="M430.8,100.3c3.1,0,5.5,0.8,7,2.2c1.5,1.4,2.2,3.5,2.2,6.2c0,3.8-1.4,6-3.3,7.3c-1.8,1.3-4.4,1.6-7,1.6H421v-1
			c2.5-0.1,2.6-0.2,2.6-2v-11.4c0-1.8-0.2-1.8-2.6-2v-1H430.8z M426.9,114.3c0,1.8,0.7,2.2,2.8,2.2c3.1,0,6.6-1.1,6.6-7.4
			c0-4.3-1.5-7.4-6.4-7.5c-2.8,0-3,0.3-3,1.4V114.3z"/>
		<path d="M450.7,114.6c0,1.8,0.2,1.8,2.6,2v1h-8.6v-1c2.5-0.1,2.6-0.2,2.6-2v-11.4c0-1.8-0.2-1.8-2.6-2v-1h8.6v1
			c-2.5,0.1-2.6,0.2-2.6,2V114.6z"/>
		<path d="M467.4,114.6c0,1.8,0.2,1.8,3.2,2v1H461v-1c3-0.1,3.2-0.2,3.2-2v-13.2h-1.7c-2.7,0-3.4,0.8-3.7,3.4h-1v-4.6h16.2v4.6h-1
			c-0.3-2.7-1-3.4-3.7-3.4h-1.7V114.6z"/>
	</g>
	<g>
		<path d="M510.6,100.3v1c-2.4,0.1-2.6,0.2-2.6,2v7.8c0,2.5-0.7,4.2-2,5.3c-1.2,1-3.2,1.5-5.7,1.5c-2.5,0-4.4-0.5-5.7-1.5
			c-1.3-1.1-2-2.8-2-5.3v-7.8c0-1.8-0.2-1.8-2.6-2v-1h8.6v1c-2.5,0.1-2.6,0.2-2.6,2v8c0,3.5,1.2,5.6,4.3,5.6c3.2,0,4.3-2.1,4.3-5.6
			v-8c0-1.8-0.2-1.8-2.6-2v-1H510.6z"/>
	</g>
	<g>
		<path d="M520.6,100.3c3.1,4.4,6.2,8.8,9.4,13.2l0.1-0.1v-7.9c0-1.3-0.1-2.2-0.2-3c-0.1-0.8-0.6-1-1.4-1.1l-1.3-0.1v-1h6.9v1
			l-1.1,0.1c-0.6,0.1-1.1,0.4-1.2,1c-0.1,0.9-0.2,1.8-0.2,3.1v12H529c-3.5-4.9-7-9.9-10.5-14.8h-0.1v9.6c0,1.3,0.1,2.2,0.2,3
			c0.1,0.8,0.6,1,1.5,1.1l1.3,0.1v1h-6.8v-1l1.1-0.1c0.6-0.1,1.1-0.3,1.2-1.1c0.1-0.8,0.2-1.7,0.2-3v-9.1c0-1.8-0.2-1.8-2.6-2v-1
			H520.6z"/>
		<path d="M544.4,114.6c0,1.8,0.2,1.8,2.6,2v1h-8.6v-1c2.5-0.1,2.6-0.2,2.6-2v-11.4c0-1.8-0.2-1.8-2.6-2v-1h8.6v1
			c-2.5,0.1-2.6,0.2-2.6,2V114.6z"/>
		<path d="M554.2,115.6c-1.5-1.5-2.2-3.8-2.2-6.6c0-2.8,0.8-5.1,2.2-6.6c1.5-1.5,3.7-2.4,6.7-2.4c3,0,5.2,0.9,6.7,2.4
			c1.5,1.5,2.2,3.8,2.2,6.6c0,2.8-0.7,5.1-2.2,6.6c-1.5,1.5-3.7,2.4-6.7,2.4C557.9,118,555.7,117.1,554.2,115.6z M555.5,108.9
			c0,3.8,1.2,7.9,5.3,7.9c4.2,0,5.3-4.1,5.3-7.9c0-3.8-1.2-7.9-5.3-7.9C556.7,101.1,555.6,105.1,555.5,108.9z"/>
		<path d="M581,100.3c3.1,4.4,6.2,8.8,9.4,13.2l0.1-0.1v-7.9c0-1.3-0.1-2.2-0.2-3c-0.1-0.8-0.6-1-1.4-1.1l-1.3-0.1v-1h6.9v1
			l-1.1,0.1c-0.6,0.1-1.1,0.4-1.2,1c-0.1,0.9-0.2,1.8-0.2,3.1v12h-2.4c-3.5-4.9-7-9.9-10.5-14.8h-0.1v9.6c0,1.3,0.1,2.2,0.2,3
			c0.1,0.8,0.6,1,1.5,1.1l1.3,0.1v1H575v-1l1.1-0.1c0.6-0.1,1.1-0.3,1.2-1.1c0.1-0.8,0.2-1.7,0.2-3v-9.1c0-1.8-0.2-1.8-2.6-2v-1H581
			z"/>
	</g>
	<g>
		<path d="M251.1,79.7v-2.1c4-0.2,4.5-0.5,4.5-3.3V46.2h-0.2l-11.8,32.5h-3.4L228,46.2h-0.2v19.3c0,4.6,0.1,6.8,0.3,8.8
			c0.2,2,0.8,2.9,2.4,3l3.1,0.3v2.1h-13.5v-2.1l2-0.3c1.3-0.2,1.9-1,2-3c0.2-2,0.3-4.2,0.3-8.8V46.1c0-2.9-0.5-3.2-4.5-3.3v-2.1
			h14.9c0.7,2.4,2,5.8,3,8.3l6.7,17.4h0.2l4.8-13.2c1.5-4.2,3.5-9.7,4.4-12.4h14.7v2.1c-4,0.2-4.5,0.5-4.5,3.3v28.2
			c0,2.9,0.5,3.2,4.5,3.3v2.1H251.1z"/>
	</g>
	<g>
		<path d="M303.5,63.1c0,10.8-5.4,17.3-16.4,17.3c-11,0-16.4-6.5-16.4-17.3c0-10.8,5.4-17.3,16.4-17.3
			C298.2,45.8,303.5,52.3,303.5,63.1z M295,63.1c-0.1-6.1-1-15.1-7.9-15.1c-7,0-7.8,9-7.9,15.1c0.1,6.5,1,15.1,7.9,15.1
			C294.1,78.3,294.9,69.7,295,63.1z"/>
		<path d="M336.6,69c-0.1,8.3-4.9,11.5-13.8,11.5c-9.6,0-13.8-3.2-13.8-11.5V51.2c0-2.4-0.4-2.7-3.6-2.8v-1.8h15v1.8
			c-3.3,0.1-3.6,0.4-3.6,2.8v18.4c0,5.5,1.8,8.6,6.1,8.6c4.4,0,6.1-3.2,6.1-8.6V51.2c0-2.4-0.4-2.7-3.6-2.8v-1.8h15v1.8
			c-3.3,0.1-3.6,0.4-3.6,2.8V69z"/>
		<path d="M354.3,46.5c4.9,7.6,10,15.2,15.1,22.8h0.2V58.6c0-3.9,0-5.8-0.2-7.5c-0.1-1.7-0.7-2.4-2-2.5l-2.7-0.2v-1.8h11.6v1.8
			l-1.7,0.2c-1.1,0.1-1.6,0.9-1.7,2.5c-0.2,1.7-0.2,3.6-0.2,7.5v21.1h-5.3c-5.7-8.9-11.5-17.8-17.4-26.8h-0.2v14.7
			c0,3.9,0,5.8,0.2,7.5c0.1,1.7,0.7,2.4,2,2.5l2.7,0.2v1.8h-11.6v-1.8l1.7-0.2c1.1-0.1,1.6-0.9,1.7-2.5c0.2-1.7,0.2-3.6,0.2-7.5
			V51.2c0-2.4-0.4-2.7-3.8-2.8v-1.8H354.3z"/>
		<path d="M396.6,75.2c0,1.7,0.3,2.4,1.9,2.5l2.7,0.2v1.8h-16.9v-1.8l2.7-0.2c1.5-0.1,1.9-0.8,1.9-2.5V48.8H387c-4.4,0-5,2-6.7,6.8
			h-1.8v-9H407v9h-1.8c-1.6-4.8-2.3-6.8-6.7-6.8h-1.9V75.2z"/>
		<path d="M405.1,79.7v-1.8c2.6-0.1,3.1-0.5,3.9-2.5c1.2-2.9,2.7-7.8,4.5-12.7l5.6-16.2h6l9.5,29.1c0.6,2,1.2,2.3,3.7,2.3v1.8h-15.2
			v-1.8l2.8-0.3c1-0.1,1.2-0.7,0.8-1.7l-2.5-8h-9.3c-0.9,2.8-1.7,5.4-2.3,8c-0.2,1.1-0.2,1.6,0.9,1.7l2.9,0.2v1.8H405.1z
			 M423.4,65.6l-3.7-12.4h-0.1l-3.9,12.4H423.4z"/>
		<path d="M451.6,75.1c0,2.4,0.4,2.7,3.8,2.8v1.8h-15.3v-1.8c3.4-0.1,3.8-0.4,3.8-2.8V51.2c0-2.4-0.4-2.7-3.8-2.8v-1.8h15.3v1.8
			c-3.4,0.1-3.8,0.4-3.8,2.8V75.1z"/>
		<path d="M469.5,46.5c4.9,7.6,10,15.2,15.1,22.8h0.2V58.6c0-3.9,0-5.8-0.2-7.5c-0.1-1.7-0.7-2.4-2-2.5l-2.7-0.2v-1.8h11.6v1.8
			l-1.7,0.2c-1.1,0.1-1.6,0.9-1.7,2.5c-0.2,1.7-0.2,3.6-0.2,7.5v21.1h-5.3c-5.7-8.9-11.5-17.8-17.4-26.8h-0.2v14.7
			c0,3.9,0,5.8,0.2,7.5c0.1,1.7,0.7,2.4,2,2.5l2.7,0.2v1.8h-11.6v-1.8l1.7-0.2c1.1-0.1,1.6-0.9,1.7-2.5c0.2-1.7,0.2-3.6,0.2-7.5
			V51.2c0-2.4-0.4-2.7-3.8-2.8v-1.8H469.5z"/>
	</g>
	<g>
		<path d="M502.8,79.7v-2.1c3.1-0.2,3.7-0.6,4.6-2.9c1.4-3.5,3.2-9.2,5.3-15l6.6-19.1h7.1l11.1,34.3c0.7,2.3,1.5,2.7,4.4,2.7v2.1
			H524v-2.1l3.3-0.3c1.2-0.1,1.4-0.8,1-2l-2.9-9.4h-11c-1,3.3-2,6.4-2.7,9.4c-0.3,1.2-0.2,1.9,1,2l3.4,0.3v2.1H502.8z M524.4,63.1
			L520,48.5h-0.2l-4.6,14.6H524.4z"/>
	</g>
	<g>
		<path d="M569.9,79.7v-1.8c3.4-0.1,3.8-0.4,3.8-2.8V51.3h-0.1l-10,27.6h-2.9l-10.3-27.6h-0.1v16.4c0,3.9,0,5.8,0.2,7.5
			c0.1,1.7,0.7,2.4,2,2.5l2.6,0.2v1.8h-11.5v-1.8l1.7-0.2c1.1-0.1,1.6-0.9,1.7-2.5c0.2-1.7,0.2-3.6,0.2-7.5V51.2
			c0-2.4-0.4-2.7-3.8-2.8v-1.8h12.7c0.6,2.1,1.7,4.9,2.5,7.1l5.7,14.7h0.1l4.1-11.2c1.3-3.5,2.9-8.3,3.7-10.6h12.5v1.8
			c-3.4,0.1-3.8,0.4-3.8,2.8v23.9c0,2.4,0.4,2.7,3.8,2.8v1.8H569.9z"/>
		<path d="M591.7,51.2c0-2.4-0.4-2.7-3.8-2.8v-1.8h25.9v8.9h-1.8c-1.5-4.7-2.4-6.7-7.3-6.7H601c-1.3,0-1.7,0.3-1.7,1.7v10.6h4.6
			c3,0,3.6-0.8,4.4-4.3h1.8v11.1h-1.8c-0.8-3.5-1.4-4.3-4.4-4.3h-4.6V74c0,3.1,1.5,3.5,5.9,3.5c5.7,0,6.5-2.6,8.2-7.8h1.8l-0.6,10
			h-26.8v-1.8c3.4-0.1,3.8-0.4,3.8-2.8V51.2z"/>
		<path d="M629.3,75.1c0,2.4,0.4,2.7,3.8,2.8v1.8h-15.3v-1.8c3.4-0.1,3.8-0.4,3.8-2.8V51.2c0-2.4-0.4-2.7-3.8-2.8v-1.8h16.6
			c4.7,0,7.4,0.9,9.3,2.5c1.7,1.6,2.4,3.6,2.4,6.1c0,4.2-3.4,7.3-8.1,7.9v0.1c4.9,1.2,5.9,4.4,6.5,8.3c0.4,2.5,1.2,4.3,2.4,5.5
			c0.6,0.6,1.4,1,2.3,1.1v1.8h-3.6c-5,0-7.1-1.2-8.3-4.8c-0.8-2.4-1.2-5-1.5-6.7c-0.6-2.6-1.9-3.7-4.3-3.7h-2.2V75.1z M629.3,62.3
			h2.4c4.8,0,6.4-2.9,6.4-6.9c0-4.9-2.5-6.7-5.7-6.7c-2.6,0-3.1,0.6-3.1,1.9V62.3z"/>
		<path d="M662.9,75.1c0,2.4,0.4,2.7,3.8,2.8v1.8h-15.3v-1.8c3.4-0.1,3.8-0.4,3.8-2.8V51.2c0-2.4-0.4-2.7-3.8-2.8v-1.8h15.3v1.8
			c-3.4,0.1-3.8,0.4-3.8,2.8V75.1z"/>
		<path d="M698,68.8l-0.6,9.4c-2.9,1.7-7.9,2.3-11.2,2.3c-12.3,0-17.6-6.7-17.6-17c0-4.8,1.2-9.4,4.1-12.6c2.8-3.2,7.4-5,14.2-5
			c2.4,0,7.4,0.4,10.3,2.1v8.6h-1.8c-1.1-3.5-2.8-8.5-8.9-8.5c-8.7,0-9.4,11.2-9.4,14.7c0,5.4,1.2,15.5,9.7,15.5
			c5.4,0,7.5-4.2,9.3-9.5H698z"/>
		<path d="M699.4,79.7v-1.8c2.6-0.1,3.1-0.5,3.9-2.5c1.2-2.9,2.7-7.8,4.5-12.7l5.6-16.2h6l9.5,29.1c0.6,2,1.2,2.3,3.7,2.3v1.8h-15.2
			v-1.8l2.8-0.3c1-0.1,1.2-0.7,0.8-1.7l-2.5-8h-9.3c-0.9,2.8-1.7,5.4-2.3,8c-0.2,1.1-0.2,1.6,0.9,1.7l2.9,0.2v1.8H699.4z
			 M717.7,65.6L714,53.2h-0.1L710,65.6H717.7z"/>
	</g>
</g>
<g>
	<polygon fill="#FFFFFF" points="118,0 0,117.8 0,117.9 235.9,118 	"/>
	<polygon fill="#B81237" points="192,74.1 148.2,118 160.7,118 198.3,80.3 	"/>
	<polygon fill="#B81237" points="199.4,81.5 163,118 175.5,118 205.7,87.8 	"/>
	<polygon fill="#B81237" points="206.9,88.9 177.8,118 190.3,118 213.1,95.2 	"/>
	<polygon fill="#B81237" points="214.3,96.3 192.6,118 205.1,118 220.5,102.6 	"/>
	<polygon fill="#B81237" points="221.7,103.7 207.4,118 220,118 227.9,110 	"/>
	<path fill="#B81237" d="M107.1,103.7c-2.2,3.3-5.3,10.6-6.4,14.2h0.7l37-37c-4.2,0.7-8.3,2.2-11.9,4.5
		C119.8,89.7,112.2,96.1,107.1,103.7"/>
	<polygon fill="#B81237" points="229.1,111.1 222.2,118 235.9,118 232.5,114.5 	"/>
	<path fill="#B81237" d="M131.6,13.7l-6.3-6.3L14.8,118H16l81.7-81.7c3.8,0.1,7.3,0.3,10.7,0.7L131.6,13.7z"/>
	<path fill="#B81237" d="M124.2,6.3l-5.7-5.7l0,0L118,0L0,118h1.1l81.5-81.5c4.2-0.2,8.1-0.3,11.6-0.2L124.2,6.3z"/>
	<path fill="#B81237" d="M139,21.1l-6.3-6.3L29.6,118h1.1l80.5-80.5c3.2,0.5,6.3,1.2,9.4,2L139,21.1z"/>
	<path fill="#B81237" d="M131.8,43.1l14.6-14.6l-6.3-6.3L44.5,118h1.1L113,50.5c3.1,1.6,5.3,3,7.2,4.2l4.7-4.7
		c-3.7-0.2-7.7-0.4-11.4,0l9.8-9.8C126.1,41,128.9,42,131.8,43.1"/>
	<path fill="#B81237" d="M147.6,29.6L59.3,118h1.1l61.9-61.9c1.2,0.7,2.3,1.4,3.6,2.1c2.8-2.3,2.8-3.4,6.3-5.1
		c1.4-0.7,3.5-1.1,5.9-1.3l15.8-15.8L147.6,29.6z M128.2,50.2l6.1-6.1c1.2,0.5,2.4,1,3.6,1.5C138.2,49.9,133.9,50.4,128.2,50.2"/>
	<path fill="#B81237" d="M155,37L74.1,118h1.1l66.4-66.4c3.6,0,7.5,0.2,10.7,0.7l8.9-8.9L155,37z"/>
	<path fill="#B81237" d="M168.1,95.8l22.8-22.8l-6.3-6.3l-11.5,11.5v0l-10.1,10.1v0L133.3,118h12.5l21.5-21.5
		c-0.8-2.9-2.1-5.5-3.8-7.6l9.3-9.3c-0.2,1.2-0.5,2.4-0.8,3.7C170.5,88.9,169.9,91.8,168.1,95.8"/>
	<path fill="#B81237" d="M183.5,65.5l-5.7-5.7l-0.6-0.6L146,90.5L118.5,118h12.5l30.9-30.9c-2-1.9-4.4-3.3-7-4.4l17.1-17.1
		c1.2,2.9,1.7,6.2,1.4,10L183.5,65.5z"/>
	<path fill="#B81237" d="M170.4,52.4L170.4,52.4l-0.6-0.6L141,80.7L103.7,118h12.5l36.2-36.2c-3.2-1-6.7-1.3-10.2-1.2l23.2-23.2
		c2.3,1.7,4.2,3.6,5.5,5.9l5.2-5.2L170.4,52.4z"/>
	<path fill="#B81237" d="M162.4,44.4L88.9,118H90l65.3-65.3c1.3,0.3,2.4,0.6,3.1,0.9c1.8,0.8,3.4,1.6,4.9,2.5l5.3-5.3L162.4,44.4z"
		/>
</g>
</svg>
