<?xml version="1.0" encoding="utf-8"?>
<!-- Generator: Adobe Illustrator 21.0.0, SVG Export Plug-In . SVG Version: 6.00 Build 0)  -->
<svg version="1.1" id="Layer_1" xmlns="http://www.w3.org/2000/svg" xmlns:xlink="http://www.w3.org/1999/xlink" x="0px" y="0px"
	 viewBox="0 0 288 288" style="enable-background:new 0 0 288 288;" xml:space="preserve">
<style type="text/css">
	.st0{fill:#B71F39;}
</style>
<path class="st0" d="M0,0v288.1H288V0L0,0z M200,115.1c0,1.1,0,2.6,0,3.7c0,38.3-29.1,82.2-82.2,82.2c-16.3,0-31.4-4.6-44.3-12.8
	c2.3,0.3,4.6,0.3,6.9,0.3c13.7,0,26-4.6,36-12.3c-12.6-0.3-23.1-8.6-26.8-20c1.7,0.3,3.4,0.6,5.4,0.6c2.9,0,5.4-0.6,7.7-1.1
	c-13.1-2.6-23.1-14.3-23.1-28.3v-0.3c4,2.3,8.3,3.4,13.1,3.7c-7.7-5.1-12.8-14-12.8-24c0-5.4,1.4-10.3,4-14.6
	c14.3,17.7,35.4,29.1,59.4,30.3c-0.6-2-0.9-4.3-0.9-6.6c0-16,12.8-28.8,28.8-28.8c8.3,0,16,3.4,21.1,9.1c6.6-1.4,12.6-3.7,18.3-7.1
	c-2,6.9-6.6,12.6-12.6,16c5.7-0.9,11.4-2.3,16.6-4.6C210.5,106.2,205.7,111.4,200,115.1z"/>
</svg>
