<?xml version="1.0" encoding="utf-8"?>
<!-- Generator: Adobe Illustrator 21.0.0, SVG Export Plug-In . SVG Version: 6.00 Build 0)  -->
<svg version="1.1" id="Layer_1" xmlns="http://www.w3.org/2000/svg" xmlns:xlink="http://www.w3.org/1999/xlink" x="0px" y="0px"
	 viewBox="0 0 288 288" style="enable-background:new 0 0 288 288;" xml:space="preserve">
<style type="text/css">
	.st0{fill:#B71F39;}
</style>
<g>
	<path class="st0" d="M130,161.7c12.3-6.4,24.5-12.7,36.8-19.1c-12.4-6.5-24.5-12.8-36.8-19.2C130,136.2,130,148.9,130,161.7z"/>
	<path class="st0" d="M0,0v288.1h288.1V0L0,0z M211.8,155.2c-0.2,5.3-0.7,10.7-1.3,16c-0.3,3.3-1.3,6.5-2.8,9.6
		c-2.4,5-6.6,7.9-11.9,8.9c-3.1,0.6-6.2,0.7-9.3,0.9c-4.9,0.3-9.8,0.5-14.7,0.6c-8.9,0.3-17.9,0.4-25.7,0.6
		c-7.3-0.1-13.6-0.2-19.8-0.3c-6.5-0.2-13.1-0.3-19.5-0.5c-4.9-0.2-9.8-0.4-14.6-1.4c-3.6-0.7-6.7-2.3-9.3-5
		c-1.8-1.9-2.9-4.3-3.7-6.7c-1.2-3.5-1.8-7-2.1-10.7c-0.3-4.4-0.8-8.9-0.8-13.3c-0.2-7-0.2-14,0-21c0.1-4.9,0.6-9.8,1.1-14.7
		c0.3-3.5,1.2-6.8,2.5-10c2.3-5.6,6.5-8.8,12.3-10c2.9-0.6,6-0.8,9-0.9c5.6-0.3,11.1-0.6,16.7-0.6c10.2-0.2,20.3-0.4,30.5-0.3
		c9.1,0,18.2,0.3,27.4,0.5c5.5,0.2,11,0.5,16.5,0.9c3.2,0.2,6.3,0.9,9.2,2.6c4,2.3,6.3,5.8,7.7,10.2c1,3.1,1.6,6.3,1.9,9.5
		c0.3,4.7,0.8,9.4,0.9,14C212,141,212.1,148.1,211.8,155.2z"/>
</g>
</svg>
