<?xml version="1.0" encoding="utf-8"?>
<!-- Generator: Adobe Illustrator 20.1.0, SVG Export Plug-In . SVG Version: 6.00 Build 0)  -->
<svg version="1.1" id="Layer_1" xmlns="http://www.w3.org/2000/svg" xmlns:xlink="http://www.w3.org/1999/xlink" x="0px" y="0px"
	 viewBox="0 0 288 288" style="enable-background:new 0 0 288 288;" xml:space="preserve">
<style type="text/css">
	.st0{fill:#B71F39;}
</style>
<path class="st0" d="M0.1,0v288h288V0H0.1z M108.8,207.4H82.5v-84.6h26.3V207.4z M95.5,110.9c-8.4,0-15.1-6.8-15.1-15.1
	c0.1-8.3,6.8-15.1,15.1-15.1c8.4,0,15.1,6.8,15.1,15.1C110.6,104.2,103.8,110.9,95.5,110.9z M207.4,207.4h-26.3v-41
	c0-9.7,0-22.3-13.7-22.3s-15.8,10.8-15.8,21.6v41.8h-26.3v-84.6h25.2v11.5h0.4c5.1-8.8,14.7-14.1,24.8-13.7
	c26.6,0,31.7,17.6,31.7,40.3V207.4z"/>
</svg>
